<svg xmlns="http://www.w3.org/2000/svg" viewBox="0 0 64 64" width="64" height="64">
  <defs>
    <linearGradient id="iconGrad" x1="0%" y1="0%" x2="100%" y2="100%">
      <stop offset="0%" style="stop-color:#1E40AF;stop-opacity:1" />
      <stop offset="100%" style="stop-color:#3B82F6;stop-opacity:1" />
    </linearGradient>
  </defs>
  
  <!-- Background circle -->
  <circle cx="32" cy="32" r="30" fill="url(#iconGrad)"/>
  
  <!-- Calculator icon -->
  <rect x="20" y="18" width="24" height="28" rx="3" fill="white" opacity="0.95"/>
  <rect x="22" y="20" width="20" height="8" rx="1" fill="#1E40AF" opacity="0.8"/>
  
  <!-- Calculator buttons -->
  <rect x="22" y="32" width="4" height="4" rx="0.5" fill="#1E40AF" opacity="0.7"/>
  <rect x="28" y="32" width="4" height="4" rx="0.5" fill="#1E40AF" opacity="0.7"/>
  <rect x="34" y="32" width="4" height="4" rx="0.5" fill="#1E40AF" opacity="0.7"/>
  <rect x="22" y="38" width="4" height="4" rx="0.5" fill="#1E40AF" opacity="0.7"/>
  <rect x="28" y="38" width="4" height="4" rx="0.5" fill="#1E40AF" opacity="0.7"/>
  <rect x="34" y="38" width="4" height="4" rx="0.5" fill="#1E40AF" opacity="0.7"/>
  
  <!-- Document corner -->
  <rect x="38" y="12" width="12" height="16" rx="1" fill="white" opacity="0.9"/>
  <rect x="40" y="14" width="8" height="1" rx="0.5" fill="#1E40AF"/>
  <rect x="40" y="16" width="6" height="1" rx="0.5" fill="#1E40AF" opacity="0.8"/>
  <rect x="40" y="18" width="7" height="1" rx="0.5" fill="#1E40AF" opacity="0.8"/>
</svg> 